<svg width="1024" height="1578" fill="none" xmlns="http://www.w3.org/2000/svg"><path opacity=".2" d="M-430.749 562.776C-577.6 778.835-261.973 927.99-151.811 762.116c225.228-339.133-40.43-385.146 192.134-605.2C200.285 5.559 196.23-127.852 309.543 231.041 402.888 526.69-28.675 837.359-69.121 894.4c-171.552 241.93 258.663 487.29 563.06 67.85 304.396-419.444 375.225-513.686 508.071-234.054 132.85 279.634-486.832 426.324-551.178 616.494-74.727 220.84 442.234-125.01 547.624-197.27 12.394-8.5 26.144-14.14 41.094-15.65 71.24-7.23 272.87-12.5 34.16 199.9-125.262 111.46-311.437 206.29-240.615 244.33" stroke="#4A4A4A" stroke-width="3" stroke-linecap="round" stroke-dasharray="10 10"/></svg>