<svg width="1505" height="1109" viewBox="0 0 1505 1109" fill="none" xmlns="http://www.w3.org/2000/svg">
<path opacity="0.2" d="M45.5479 847.104C119.711 1088.18 342.631 1002.24 347.099 803.382C358.298 304.857 155.653 656.526 17.184 283.293C-53.1731 93.6508 137.615 -186.97 224.265 184.365C256.467 322.368 474.375 818.911 493.001 883.51C571.047 1154.19 954.082 1287.76 865.95 637.242C863.842 621.684 857.631 606.424 849.143 593.215C708.78 374.766 709.349 28.8442 980.502 153.506C1260 282.006 1014.84 741.206 1117 916.505C1233.45 1116.31 1275.57 593.953 1283.89 468.062C1285.05 450.494 1290.37 433.659 1301.47 419.992C1341.29 370.968 1443.08 275.515 1461.5 553.008C1471.63 705.512 1435 880.505 1503 868.005" stroke="#4A4A4A" stroke-width="3" stroke-linecap="round" stroke-dasharray="10 10"/>
</svg>
