<svg width="450" height="484" fill="none" xmlns="http://www.w3.org/2000/svg"><path d="M15.274 245.86C26.454 172.826 72.292 83.1 162.85 73.71c0 0 68.756-8.347 136.534 4.303 40.226 7.507 75.499 29.856 97.818 61.978 22.319 32.121 29.775 71.288 20.727 108.63-5.877 24.253-9.848 49.355-8.758 74.277 1.897 43.374.805 83.861-41.372 109.728-37.659 23.097-85.054 43.467-130.269 47.035-30.729 2.424-65.188-1.499-94.804-9.483C-8.204 429.487 4.094 318.893 15.274 245.86z" fill="#F4F7FA"/><path d="M155.046 383.186c-36.698-20.654-80.499-52.197-113.583-97.892-8.443-11.661-60.6-83.699-33.95-110.972 9.388-9.607 20.626-5.546 33.402-18.171 15.138-14.96 9.05-30.237 13.999-56.84C57.867 83.439 66.509 36.986 102 28.822c21.208-4.88 51.044 4.135 68.432 20.29 25.504 23.697 19.229 58.114 7.604 116.164-10.306 51.459-20.088 59.944-26.862 97.129-5.027 27.597-7.839 67.942 3.872 120.782z" fill="#B3CEE0"/><path d="M158.887 388.063a234.702 234.702 0 0028.271 31.973c31.946 30.124 71.688 51.645 118.125 63.964l.553-2.082c-46.086-12.226-85.517-33.573-117.198-63.448-113.36-106.898-75.641-283.453-61.38-335.018 8.088-29.242 25.526-56.775 51.832-81.832L177.602.062c-26.591 25.33-44.228 53.193-52.421 82.816-11.745 42.466-23.887 107.573-15.029 176.58 6.436 50.139 22.786 93.226 48.735 128.605z" fill="#fff" opacity=".5"/><path d="M109.642 171.374l.903-.351c.701-.272 70.354-27.987 87.676-92.556l-2.082-.558c-15.978 59.561-77.313 87.287-85.48 90.738C62.18 74.152 95.848 17.127 107.356 1.869c.319-.424.513-.693.572-.799L106.058 0c-.06.094-.206.284-.423.573-11.736 15.56-46.162 73.8 3.562 169.941l.445.86z" fill="#fff" opacity=".5"/><path d="M28.232 200.01c13.999 19.086 38.833 42.069 82.455 59.163l.536.211.473-.329c.467-.325 47.063-33.231 77.398-96.833l30.563-64.081-1.946-.927-30.563 64.081c-28.456 59.664-71.294 92.067-76.22 95.659-51.073-20.146-75.916-48.38-87.773-68.552-12.847-21.861-13.596-39.113-13.602-39.284l-2.155.075c.026.724.777 17.972 13.898 40.299a124.047 124.047 0 006.936 10.518z" fill="#fff" opacity=".5"/><path d="M181.455 382.834c17.629-13.564 41.341-36.073 54.383-69.901 17.105-44.365.83-69.218 10.472-146.216 6.096-48.686 10.841-82.6 37.252-98.41 20.696-12.388 52.22-12.174 69.889 2.908 14.691 12.54 21.525 36.828 22.674 53.801.937 13.833-1.851 23.537 5.299 31.474 7.308 8.112 16.377 4.809 23.35 10.969 14.14 12.493 1.763 48.09-.238 53.843-22.252 63.998-87.018 102.3-115.47 118.668-23.526 13.534-59.59 31.107-107.611 42.864z" fill="#CFE0ED"/><path d="M195.186 390.545l-.377-1.384c40.797-11.094 92.701-33.635 108.291-78.019 5.733-16.321 5.975-33.803 6.31-57.999.268-19.322-1.287-33.04-2.658-45.143-1.795-15.839-3.213-28.35.35-45.963 3.616-17.871 11.326-35.232 22.917-51.602l1.172.828c-11.475 16.206-19.106 33.385-22.682 51.058-3.518 17.392-2.112 29.804-.331 45.518 1.376 12.145 2.936 25.911 2.668 45.321-.325 23.42-.581 41.915-6.391 58.457-7.432 21.158-23.836 39.415-48.757 54.262-16.823 10.023-37.182 18.322-60.512 24.666z" fill="#fff" opacity=".5"/><path d="M310.346 239.802l-.708-.394c-.122-.069-12.371-6.986-23.87-21.383-10.614-13.288-22.768-35.857-20.396-67.921l1.431.106c-2.337 31.6 9.633 53.833 20.086 66.92 9.76 12.219 20.023 18.942 22.751 20.611 13.891-33.596 34.632-53.5 49.641-64.303 16.405-11.807 29.73-15.607 29.863-15.644l.386 1.381c-.131.037-13.258 3.788-29.466 15.467-14.951 10.774-35.661 30.694-49.412 64.41l-.306.75z" fill="#fff" opacity=".5"/><path d="M307.967 291.953l-.251-.457c-.107-.196-10.927-19.791-25.62-37.311-14.592-17.4-51.883-26.596-52.258-26.687l.338-1.394c1.55.376 38.128 9.401 53.021 27.16 13.529 16.133 23.792 34.01 25.521 37.082 40.843-8.42 92.228-96.995 92.744-97.893l1.244.715c-.13.226-13.237 22.914-31.278 46.276-24.289 31.454-45.469 49.088-62.948 52.411l-.513.098z" fill="#fff" opacity=".5"/><path d="M261.925 361.808l.831-1.164c11.846-16.591 12.172-35.2.969-55.311-8.392-15.064-20.444-25.329-20.565-25.431l.926-1.096c.123.104 12.375 10.539 20.893 25.829 11.069 19.869 10.981 39.08-.228 55.653 4.899-.235 21.932-1.388 43.549-6.633 23.612-5.729 57.682-17.651 85.902-41.916l54.86-47.172.936 1.088-54.86 47.171c-28.447 24.461-62.761 36.467-86.536 42.232-25.754 6.244-45.055 6.716-45.247 6.72l-1.43.03z" fill="#fff" opacity=".5"/><path d="M263.135 395.141c27.848 3.338 63.8 3.62 99.569-7.914 9.128-2.944 65.519-21.127 61.947-46.258-1.259-8.852-8.895-11.09-10.784-22.896-2.239-13.989 7.049-19.801 14.869-36.037 4.666-9.687 18.321-38.038 2.473-56.381-9.47-10.961-29.047-17.853-44.751-16.013-23.033 2.699-33.219 23.654-49.84 59.407-14.733 31.694-12.82 40.099-23.829 62.736-8.169 16.801-22.55 39.579-49.654 63.356z" fill="#FFC5A4"/><path d="M259.151 396.248a156.356 156.356 0 01-27.779 6.056c-29.025 3.618-58.85-.451-88.645-12.096l.522-1.335c29.571 11.556 59.16 15.597 87.945 12.008 102.997-12.839 152.279-122.509 164.929-155.816 7.174-18.888 8.652-40.535 4.392-64.339l1.413-.252c4.306 24.063 2.805 45.966-4.463 65.1-10.418 27.43-29.541 67.177-61.479 100.76-23.207 24.401-48.96 41.115-76.835 49.914z" fill="#fff" opacity=".5"/><path d="M370.951 299.222l-.346-.544c-.27-.422-26.767-42.701-10.639-84.196l1.338.519c-14.878 38.276 7.147 77.29 10.175 82.356 63.261-31.693 67.638-75.565 67.466-88.286a7.606 7.606 0 01.007-.654l1.426.16c-.004.074-.001.234.002.474.175 12.973-4.273 57.796-68.851 89.884l-.578.287z" fill="#fff" opacity=".5"/><path d="M403.407 346.619c-15.038 4.747-37.43 7.326-67.595-.647l-.37-.098-.125-.363c-.123-.358-12.191-36.358-3.433-82.451l8.824-46.441 1.411.268-8.825 46.44c-8.215 43.239 2.032 77.491 3.263 81.358 35.369 9.264 59.835 3.868 74.149-2.305 15.512-6.69 22.709-15.662 22.78-15.752l1.128.888c-.299.379-7.497 9.348-23.339 16.181a82.886 82.886 0 01-7.868 2.922z" fill="#fff" opacity=".5"/><path d="M185.798 176.604c-2.605 16.171 2.897 17.421-.531 31.51-3.918 16.101-12.077 18.474-10.638 28.699 1.241 8.814 7.698 9.855 14.281 22.508 6.04 11.609 6.323 21.726 6.877 25.794 1.504 11.033 11.881 27.982 48.682 54.789-.438-.152-.874-.303-1.317-.46-18.16-10.364-30.273-21.552-38.494-30.924-9.049-10.314-9.484-13.975-26.29-33.851-17.217-20.364-22.51-23.321-27.31-35.097-2.149-5.272-9.451-23.187-3.175-41.411 5.319-15.446 15.602-17.204 16.87-32.171.806-9.512-3.121-11.475-1.639-22.942 1.257-9.726 4.582-12.172 7.197-22.356a65.345 65.345 0 002.01-15.097c2.853 1.921 4.838 7.391 5.723 9.837 4.725 13.055 3.152 26.555-5.154 54.684-7.148 24.209-13.285 38.939-11.432 39.817 1.39.658 6.243-6.958 6.771-7.788 7.358-11.547 9.496-22.766 10.861-31.866 4.257-28.398 1.355-38.708 7.891-42.094 2.415-1.251 5.424-1.191 8.135-.321 1.135 4.518 1.735 9.479 1.342 14.779-1.033 13.939-7.9 16.83-10.66 33.961z" fill="#fff" opacity=".26"/><path d="M86.313 115.558l218.901-6.314 30.677-.885c9.32-.269 16.918 6.927 16.918 16.08v332.619c0 9.154-7.595 16.105-16.914 15.213l-200.437-19.188-49.199-4.703c-7.748-.742-13.93-8.273-13.93-16.553V130.948c0-8.28 6.235-15.167 13.984-15.39z" fill="#363636"/><path d="M68.343 431.666c0 8.264 6.078 15.559 13.799 16.298l248.443 23.807c9.284.889 16.743-5.78 16.743-14.914V124.562c0-9.134-7.472-16.321-16.756-16.053l-248.484 7.174c-7.72.222-13.745 7.101-13.745 15.364v300.619z" fill="#B8B7B6"/><path opacity=".7" d="M335.871 119.332v325.016c0 9.098-7.367 16.262-16.579 15.415L91.744 438.828c-7.778-.715-13.436-8.393-13.436-16.688V125.814l257.563-6.482z" fill="#fff"/><path d="M68.343 131.047v20.952l278.985-4.278v-23.159c0-9.137-7.313-16.326-16.601-16.058l-248.539 7.175c-7.724.223-13.845 7.102-13.845 15.368z" fill="#363636"/><path d="M315.102 128.555c0 4.516 3.716 8.106 8.313 8.017 4.611-.089 8.36-3.843 8.36-8.386 0-4.542-3.749-8.131-8.36-8.016-4.597.114-8.313 3.868-8.313 8.385zm-24.809.548a7.935 7.935 0 005.058 7.407 7.96 7.96 0 003.113.543c4.533-.087 8.218-3.809 8.218-8.312a7.946 7.946 0 00-5.091-7.421 7.969 7.969 0 00-3.127-.529c-4.518.113-8.171 3.834-8.171 8.312zm-24.389.538a7.833 7.833 0 002.348 5.636 7.86 7.86 0 005.685 2.248c4.456-.086 8.078-3.775 8.078-8.24a7.814 7.814 0 00-.605-3.066 7.857 7.857 0 00-1.757-2.587 7.864 7.864 0 00-5.716-2.23c-4.442.11-8.033 3.799-8.033 8.239z" fill="#fff"/><path opacity=".15" d="M131.061 452.662l199.604 19.124c9.288.889 16.663-6.054 16.663-15.191V124.563c0-9.137-7.313-16.326-16.601-16.058l-30.519.882c.78 3.614 1.505 7.28 2.113 11.001.081.465.167.936.242 1.401a206.24 206.24 0 011.626 12.836c.434 4.622.711 9.291.791 13.989.417 23.319-3.801 47.323-15.987 69.616-28.931 52.934-79.481 54.132-118.543 101.543-18.595 22.569-37.413 59.093-39.241 122.376a304.12 304.12 0 00-.148 10.513z" fill="#fff"/><path d="M95.907 171.767l210.961-1.641c2.695-.025 5.356.6 7.757 1.823 5.388 2.741 9.08 8.295 9.08 14.704v48.431c0 9.184-7.578 16.504-16.837 16.316l-172.892-3.514-38.069-.774c-7.909-.161-14.31-7.142-14.31-15.562v-44.4c0-8.421 6.401-15.322 14.31-15.383zm0 187.712l210.961 13.128c2.735.177 5.391.987 7.757 2.366 5.388 3.119 9.08 8.932 9.08 15.34v48.431c0 9.185-7.578 15.974-16.837 15.137l-172.892-15.618-38.069-3.439c-7.909-.714-14.31-8.144-14.31-16.564v-44.4c0-8.421 6.401-14.874 14.31-14.381zm0-94.141l210.961 5.722c2.716.074 5.374.792 7.757 2.093 5.388 2.929 9.08 8.613 9.08 15.021v48.431c0 9.185-7.578 16.24-16.837 15.729l-172.892-9.548-38.069-2.102c-7.909-.437-14.31-7.642-14.31-16.062v-44.4c0-8.421 6.401-15.098 14.31-14.884z" fill="#040404" style="mix-blend-mode:multiply" opacity=".3"/><path d="M73.165 178.681v44.259c0 8.394 6.36 15.333 14.219 15.467l209.569 3.591c9.195.157 16.721-7.162 16.721-16.315V177.42a16.458 16.458 0 00-4.931-11.688 16.51 16.51 0 00-11.79-4.73l-209.57 2.299c-7.858.087-14.218 6.986-14.218 15.38z" fill="#D8DEE8"/><path d="M76.314 178.468c0-7.316 5.414-13.304 12.264-13.375l208.838-2.15c8.004-.082 14.541 6.306 14.541 14.27v47.413c0 7.964-6.6 14.312-14.604 14.184l-208.74-3.343c-6.85-.11-12.299-6.127-12.299-13.442v-43.557z" fill="#fff"/><path d="M223.73 191.434l-4.137 8.007-9.163 1.136a1.145 1.145 0 00-.992 1.416c.054.212.167.405.328.554l6.612 6.373-1.567 8.782c-.169.947.866 1.705 1.753 1.282l8.263-3.945 8.36 4.443c.909.484 1.973-.221 1.799-1.193l-1.608-8.981 6.838-6.201c.743-.674.333-1.878-.692-2.037l-9.425-1.46-4.174-8.153c-.45-.878-1.747-.89-2.195-.023zm-34.372-.352l-3.938 7.813-8.724 1.112a1.126 1.126 0 00-.923.763 1.115 1.115 0 00.291 1.16l6.296 6.215-1.492 8.57a1.175 1.175 0 00.457 1.126 1.185 1.185 0 001.212.123l7.865-3.854 7.956 4.329c.865.47 1.877-.218 1.712-1.165l-1.531-8.76 6.506-6.052c.707-.657.317-1.831-.659-1.986l-8.966-1.42-3.973-7.952a1.167 1.167 0 00-1.652-.484 1.177 1.177 0 00-.437.462zm-32.736-.337l-3.753 7.629-8.316 1.088c-.892.117-1.248 1.226-.603 1.878l6.002 6.066-1.422 8.367c-.153.903.786 1.623 1.591 1.219l7.496-3.768 7.58 4.22a1.096 1.096 0 001.63-1.138l-1.457-8.549 6.197-5.91a1.137 1.137 0 00-.062-1.679 1.149 1.149 0 00-.566-.259l-8.541-1.383-3.785-7.761a1.11 1.11 0 00-1.579-.47c-.177.108-.32.264-.412.45zm-31.213-.322l-3.581 7.453-7.935 1.066c-.852.115-1.191 1.199-.576 1.835l5.728 5.923-1.357 8.174c-.146.882.75 1.585 1.518 1.19l7.152-3.686 7.23 4.117a1.05 1.05 0 001.555-1.112l-1.39-8.348 5.91-5.774a1.121 1.121 0 00-.599-1.892l-8.146-1.347-3.61-7.579a1.036 1.036 0 00-.943-.619 1.047 1.047 0 00-.956.599z" fill="#EE6E23"/><path d="M95.619 190.117l-3.42 7.284-7.58 1.046c-.814.112-1.139 1.171-.55 1.793l5.471 5.787-1.296 7.99c-.14.862.716 1.549 1.45 1.162l6.83-3.607 6.905 4.019c.75.436 1.628-.207 1.485-1.089l-1.328-8.155 5.642-5.645c.613-.612.275-1.705-.571-1.848l-7.777-1.314-3.448-7.404a.983.983 0 00-.9-.605.99.99 0 00-.913.586z" fill="#F4F7FA"/><path d="M129.62 181.375a3.056 3.056 0 003.007 3.016l102.068-.306c1.711-.005 3.032-1.414 3.032-3.15v-1.496c0-1.737-1.252-3.139-2.962-3.129l-102.21.588c-1.587.009-2.935 1.368-2.935 3.038v1.439z" fill="#B3CEE0"/><path d="M274.133 227.695c14.645.18 26.672-11.646 26.672-26.364 0-14.717-12.027-26.616-26.672-26.525-14.498.091-26.184 11.918-26.184 26.366s11.686 26.346 26.184 26.523z" fill="#878787"/><path d="M250.055 201.178c0 13.308 10.731 24.221 24.08 24.374 13.475.156 24.492-10.691 24.492-24.228 0-13.536-11.017-24.449-24.492-24.375-13.349.073-24.08 10.92-24.08 24.229z" fill="#fff"/><path d="M282.934 223.967c10.336-1.553 12.625-2.684 13.685-4.79 1.54-3.06.42-8.044-2.215-11.123-2.307-2.697-5.184-3.237-5.1-5.097.069-1.529 2.04-1.719 3.489-4.593.423-.839 1.243-2.468.886-4.432-.523-2.876-3.19-4.384-3.406-4.502-2.786-1.521-4.374.232-6.47-1.13-2.62-1.704-1.432-5.291-3.887-6.323-1.786-.75-4.066.455-4.661.769-1.982 1.048-1.774 2.104-3.447 2.754-1.962.762-2.898-.439-5.176.046-1.879.4-3.239 1.704-4.348 3.016-2.491 2.945-1.253 4.695-3.092 8.326-2.586 5.106-6.487 4.506-7.178 8.599-.362 2.14.567 3.116-.146 6.393-.481 2.212-1.087 2.605-1.194 3.908-.309 3.745 4.15 7.071 4.983 7.657 5.306 3.73 12.665 2.717 27.277.522z" fill="#646464"/><path style="mix-blend-mode:multiply" opacity=".3" d="M266.298 213.937c6.877-.444 11.537 5.815 13.386 4.284 1.754-1.453-3.197-6.441-1.507-12.22 1.66-5.675 8.18-6.841 7.664-10.05-.583-3.63-9.315-4.571-9.11-7.24.121-1.575 3.205-1.913 3.823-4.417a3.873 3.873 0 00-.064-1.982c1.699 1.323.927 4.436 3.313 5.988 2.096 1.362 3.684-.391 6.47 1.13.216.118 2.883 1.626 3.406 4.502.358 1.964-.463 3.593-.886 4.432-1.449 2.874-3.42 3.064-3.489 4.593-.084 1.86 2.793 2.4 5.1 5.097 2.635 3.079 3.755 8.063 2.215 11.123-1.06 2.106-3.349 3.237-13.685 4.79-14.612 2.195-21.971 3.208-27.277-.522-2.054-1.445-4.475-3.9-4.994-6.072 1.036.933 2.053 1.391 3.001 1.568 4.418.824 6.461-4.606 12.634-5.004z" fill="url(#paint0_linear_78_1457)"/><path d="M291.301 225.039c1.404-2.086.548-5.373.368-6.065-.704-2.702-2.363-4.383-2.967-4.98-4.144-4.096-10.447-4.096-15.202-4.096-4.73 0-7.367 0-10.237 1.616-5.164 2.906-8.704 9.709-6.641 13.084 1.286 2.104 3.786 1.307 18.726 2.005 9.769.456 14.192 1.051 15.953-1.564z" fill="#D5E3EC"/><path d="M275.996 201.867s-1.003 7.188 4.082 8.645a.782.782 0 01.538.979.79.79 0 01-.215.348l-6.269 5.841a.917.917 0 01-.676.246.94.94 0 01-.649-.311l-5.66-6.31a.776.776 0 01-.002-1.044.789.789 0 01.312-.212c1.815-.659 5.068-2.589 4.385-7.849l4.154-.333z" fill="#EC9795"/><path d="M279.115 197.88c-.002.079-1.372 7.099-4.887 7.084-3.321-.014-4.581-5.177-4.991-7.586l-.13-1.228c.47.155.976.171 1.455.044.152-.041 1.115-.302 1.472-1.097.399-.886-.334-1.591.084-2.366.242-.449.73-.66 1.102-.767-.248.364-.729 1.176-.457 1.914.183.496.694.972 1.836 1.262 3.27.832 4.548 1.149 4.516 2.74z" fill="#FC9F9D"/><path d="M278.252 198.719s1.816-1.53 1.974-.591c.33 1.958-1.223 3.034-2.065 2.447-.842-.587.091-1.856.091-1.856zm-7.973-.017s-1.803-1.532-1.96-.597c-.327 1.948 1.214 3.029 2.052 2.448.837-.581-.092-1.851-.092-1.851z" fill="#FC9F9D"/><path d="M125.212 239.055l171.743 2.942c9.195.157 16.721-7.161 16.721-16.315v-48.263a16.378 16.378 0 00-2.437-8.585 16.419 16.419 0 00-6.581-6.04c-.568.381-1.133.773-1.686 1.179a22.57 22.57 0 00-.361.27c-5.334 3.981-9.853 9.13-12.525 15.796-.275.69-.534 1.395-.769 2.121l-.011.032c-1.276 3.924-2.645 7.636-4.156 11.111-4.703 10.794-10.784 19.238-19.804 24.313a37.756 37.756 0 01-5.992 2.711c-.773.273-1.567.528-2.378.758-8.749 2.51-19.683 2.602-33.579-.249-1.025-.21-2.037-.42-3.054-.626-.57-.118-1.137-.232-1.706-.346-6.372-1.288-12.599-2.486-18.704-3.386-.423-.059-.849-.122-1.272-.181a159.024 159.024 0 00-9.571-1.058c-.289-.02-.578-.043-.866-.059-1.447-.102-2.885-.18-4.315-.222-.91-.028-1.818-.046-2.725-.053a91.746 91.746 0 00-6.851.21c-2.534.175-5.05.464-7.551.89a70.646 70.646 0 00-3.097.592c-12.389 2.66-24.465 8.767-36.474 20.459a105.98 105.98 0 00-1.929 1.925c-.022.024-.048.047-.07.074z" fill="#D8DEE8" opacity=".3"/><path d="M73.165 364.801v44.259c0 8.394 6.36 15.778 14.219 16.463l209.569 18.263c9.195.801 16.721-5.991 16.721-15.144v-48.264c0-6.386-3.667-12.167-9.018-15.256a17.436 17.436 0 00-7.703-2.332l-209.57-12.373c-7.858-.464-14.218 5.99-14.218 14.384z" fill="#D8DEE8"/><path d="M76.314 364.596c0-7.316 5.414-12.923 12.264-12.514l208.838 12.454c8.004.477 14.541 7.322 14.541 15.286v47.413c0 7.964-6.6 13.853-14.604 13.165l-208.74-17.943c-6.85-.589-12.299-6.989-12.299-14.304v-43.557z" fill="#fff"/><path d="M223.73 388.097l-4.137 7.718-9.163.494c-.983.053-1.375 1.189-.664 1.924l6.612 6.835-1.567 8.672c-.169.936.866 1.766 1.753 1.405l8.263-3.367 8.36 5.029c.909.547 1.973-.083 1.799-1.067l-1.608-9.093 6.838-5.723c.743-.622.333-1.855-.692-2.086l-9.425-2.12-4.174-8.445c-.449-.909-1.747-1.012-2.195-.176zm-34.372-2.76l-3.938 7.538-8.724.5c-.935.054-1.309 1.164-.632 1.879l6.296 6.656-1.492 8.465c-.161.914.825 1.721 1.669 1.367l7.865-3.304 7.956 4.886c.865.531 1.877-.086 1.712-1.045l-1.531-8.867 6.506-5.597c.707-.607.317-1.809-.659-2.032l-8.966-2.048-3.973-8.23c-.427-.886-1.662-.985-2.089-.168zm-32.734-2.63l-3.753 7.366-8.316.507c-.892.054-1.248 1.138-.603 1.835l6.002 6.486-1.422 8.268c-.153.892.786 1.678 1.591 1.33l7.495-3.243 7.581 4.75c.824.517 1.788-.088 1.63-1.023l-1.458-8.651 6.198-5.476c.672-.595.301-1.767-.628-1.982l-8.542-1.981-3.785-8.026c-.407-.864-1.584-.958-1.99-.16zm-31.215-2.506l-3.581 7.202-7.935.511c-.852.055-1.191 1.115-.576 1.795l5.728 6.323-1.357 8.08c-.146.871.75 1.637 1.518 1.295l7.152-3.184 7.23 4.623c.786.502 1.706-.091 1.555-1.004l-1.39-8.445 5.91-5.36c.641-.582.287-1.726-.599-1.934l-8.146-1.918-3.61-7.831c-.389-.844-1.511-.933-1.899-.153zm-29.79-2.391l-3.42 7.045-7.58.514c-.814.055-1.139 1.092-.55 1.755l5.471 6.17-1.296 7.899c-.14.853.717 1.599 1.45 1.263l6.83-3.128 6.905 4.502c.75.489 1.628-.092 1.485-.984l-1.327-8.249 5.641-5.249c.613-.57.275-1.687-.571-1.889l-7.777-1.858-3.448-7.646c-.371-.823-1.443-.909-1.813-.145z" fill="#EE6E23"/><path d="M129.62 371.931c0 1.67 1.42 3.115 3.007 3.221l102.068 6.872c1.711.115 3.032-1.187 3.032-2.923v-1.496c0-1.737-1.252-3.244-2.962-3.355l-102.21-6.587c-1.587-.102-2.935 1.16-2.935 2.83v1.438z" fill="#B3CEE0"/><path d="M274.133 427.887c14.645 1.205 26.672-9.779 26.672-24.497s-12.027-27.458-26.672-28.392c-14.498-.925-26.184 10.084-26.184 24.532s11.686 27.164 26.184 28.357z" fill="url(#paint1_linear_78_1457)"/><path d="M250.055 399.683c0 13.309 10.731 24.972 24.08 26.061 13.475 1.098 24.492-8.977 24.492-22.513 0-13.537-11.017-25.221-24.492-26.091-13.349-.861-24.08 9.235-24.08 22.543z" fill="#fff"/><path d="M296.061 427.214c1.787-2.796-.735-7.814-2.321-10.12-4.615-6.708-13.054-7.561-19.937-8.257-6.728-.681-13.193-1.334-17.906 3.123-3.071 2.903-5.889 8.438-4.01 11.657 1.978 3.39 7.486 1.338 20.671 2.37 14.644 1.147 21.274 4.712 23.503 1.227z" fill="#515356"/><path d="M267.45 409.436c0 1.246 3.039 2.976 6.795 3.266 3.767.29 6.827-.978 6.827-2.231s-3.06-.925-6.827-1.21c-3.756-.285-6.795-1.072-6.795.175z" fill="#B9D2E2"/><path d="M276.753 401.416c1.038.076-1.357 7.186 2.416 8.472.366.124.426.62.093.774-1.014.472-2.911 1.022-6.017.784a8.195 8.195 0 01-4.249-1.599.414.414 0 01-.114-.568.413.413 0 01.159-.14c1.157-.51 2.764-2.291 2.285-7.933l5.427.21z" fill="#DE8A89"/><path d="M279.908 392.899c-.015.09-.33 6.727-1.853 9.941-.436.921-2.601.647-4.001.43-1.214-.189-3.115.114-3.65-.764-2.149-3.526-1.785-11.841-1.785-11.841s1.101-2.7 5.624-2.315c4.538.387 5.665 4.549 5.665 4.549z" fill="#FC9F9D"/><path d="M278.841 396.399s.952-1.037 1.849-1.12c.897-.084 1.482 2.278.257 3.7-1.223 1.422-2.637.068-2.637.068l.531-2.648zm-9.232-.656s-.945-1.167-1.834-1.377c-.889-.209-1.468 2.058-.256 3.647 1.214 1.591 2.618.446 2.618.446l-.528-2.716z" fill="#FC9F9D"/><path d="M279.588 396.37c-.12.21-.257.405-.35.374-.384-.127 1.099-3.765-.267-5.17-.706-.726-1.5-.164-4.386-.495-2.9-.333-3.641-1.078-4.516-.607-.797.429-1.509 1.761-.919 5.896l-.493-.15c.221-1.324-.02-2.187-.296-2.74-.202-.403-.566-.93-.538-1.652.018-.448.166-.458.19-.824.072-1.072-1.154-1.447-1.213-2.515-.045-.823.659-.961.53-1.826-.109-.736-.659-.909-.572-1.429.094-.562.831-.935 1.348-1.047.528-.115.719.064 1.029-.129.501-.313.26-.944.622-1.148.645-.363 1.927 1.346 2.757.997.502-.211.309-.954.754-1.102.86-.285 2.381 2.229 2.993 1.949.294-.133.011-.74.422-1.146.483-.476 1.644-.398 2.173.176.494.535.075 1.107.597 1.778.469.603 1.012.404 1.542.898.901.839.587 2.579.476 3.199-.386 2.137-1.585 2.491-1.316 3.984.069.382.229.813.115 1.421-.1.491-.336.944-.682 1.308z" fill="#393939"/><path style="mix-blend-mode:multiply" opacity=".3" d="M268.561 390.935c.106-1.052-.712-1.601-.575-2.347.11-.599.795-1.097 1.438-1.17 1.373-.155 2.263 1.933 3.631 1.807 1.058-.097.941-1.385 2.136-1.818 1.897-.688 3.888 1.939 5.152 1.335.38-.181.765-.688.792-2.134.726.882.441 2.464.336 3.05-.386 2.137-1.585 2.491-1.316 3.984.069.382.229.813.115 1.42-.1.492-.336.945-.682 1.308-.12.211-.257.406-.35.375-.384-.128 1.099-3.765-.267-5.17-.706-.727-1.5-.165-4.386-.496-2.9-.332-3.641-1.078-4.516-.607-.796.429-1.509 1.762-.919 5.896l-.493-.149c.222-1.325-.02-2.188-.296-2.74-.083-.166-.194-.354-.293-.567.022-.384.091-.765.206-1.132.146-.467.253-.507.287-.845z" fill="url(#paint2_linear_78_1457)"/><path d="M125.212 428.819l171.743 14.967c9.195.801 16.721-5.991 16.721-15.144v-48.264c0-6.386-3.667-12.167-9.018-15.256-.568.341-1.133.694-1.686 1.061-.121.079-.241.162-.361.245-5.334 3.607-9.853 8.44-12.525 14.918a31.99 31.99 0 00-.769 2.068l-.011.032c-1.276 3.834-2.645 7.45-4.156 10.82-4.703 10.464-10.784 18.482-19.804 22.925a34.937 34.937 0 01-5.992 2.292c-.773.219-1.567.419-2.378.592-8.749 1.897-19.683 1.224-33.579-2.6-1.025-.282-2.037-.563-3.054-.84-.57-.158-1.137-.312-1.706-.466-6.372-1.734-12.599-3.368-18.704-4.695-.423-.088-.849-.181-1.272-.27a167.52 167.52 0 00-5.48-1.062c-1.37-.242-2.734-.465-4.091-.667-.289-.039-.578-.083-.866-.119a109.513 109.513 0 00-7.04-.768 92.308 92.308 0 00-6.851-.269 74.961 74.961 0 00-7.551.361 67.406 67.406 0 00-3.097.375c-12.389 1.793-24.465 7.054-36.474 17.906a92.622 92.622 0 00-1.929 1.79c-.022.022-.048.043-.07.068z" fill="#D8DEE8" opacity=".3"/><path d="M73.165 271.458v44.26c0 8.393 6.36 15.554 14.219 15.963l209.569 10.904c9.195.479 16.721-6.577 16.721-15.73v-48.264c0-6.387-3.667-12.038-9.018-14.94a16.96 16.96 0 00-7.703-2.061l-209.57-5.015c-7.858-.188-14.218 6.49-14.218 14.883z" fill="#D8DEE8"/><path d="M76.314 271.198c0-7.316 5.414-13.115 12.264-12.946l208.838 5.126c8.004.196 14.541 6.812 14.541 14.775v47.414c0 7.963-6.6 14.083-14.604 13.676l-208.74-10.617c-6.85-.348-12.299-6.556-12.299-13.871v-43.557z" fill="#fff"/><path d="M223.73 289.468l-4.137 7.862-9.163.816c-.983.088-1.375 1.238-.664 1.947l6.612 6.604-1.567 8.727c-.169.942.866 1.735 1.753 1.343l8.263-3.657 8.36 4.736c.909.515 1.973-.153 1.799-1.13l-1.608-9.038 6.838-5.963c.743-.647.333-1.866-.692-2.061l-9.425-1.789-4.174-8.298c-.45-.894-1.747-.951-2.195-.099zm-34.372-1.554l-3.938 7.676-8.724.807c-.935.087-1.309 1.209-.632 1.901l6.296 6.435-1.492 8.517c-.161.919.825 1.692 1.669 1.308l7.865-3.58 7.956 4.607c.865.501 1.877-.152 1.712-1.105l-1.531-8.813 6.506-5.825c.707-.633.317-1.821-.659-2.01l-8.966-1.733-3.973-8.091c-.427-.871-1.662-.926-2.089-.094zm-32.734-1.48l-3.753 7.498-8.316.798c-.892.086-1.248 1.183-.603 1.857l6.002 6.275-1.422 8.318c-.153.897.786 1.65 1.591 1.274l7.495-3.507 7.581 4.485c.824.488 1.788-.151 1.63-1.081l-1.458-8.599 6.197-5.694c.673-.618.302-1.777-.627-1.96l-8.542-1.681-3.785-7.893c-.407-.85-1.584-.902-1.99-.09zm-31.215-1.41l-3.581 7.328-7.935.789c-.852.085-1.191 1.157-.576 1.815l5.728 6.122-1.357 8.128c-.146.877.75 1.611 1.518 1.242l7.152-3.436 7.23 4.37a1.027 1.027 0 001.131-.013 1.018 1.018 0 00.424-1.046l-1.39-8.396 5.91-5.568c.641-.604.287-1.735-.599-1.913l-8.146-1.631-3.61-7.705c-.389-.83-1.511-.88-1.899-.086zm-29.79-1.346l-3.42 7.165-7.58.781c-.814.084-1.139 1.132-.55 1.774l5.471 5.978-1.296 7.945c-.14.857.717 1.574 1.45 1.212l6.83-3.368 6.905 4.259c.75.463 1.628-.149 1.485-1.036l-1.327-8.202 5.641-5.447c.613-.592.275-1.697-.571-1.869l-7.777-1.585-3.448-7.525c-.371-.81-1.443-.858-1.813-.082z" fill="#EE6E23"/><path d="M129.62 275.972c0 1.67 1.42 3.067 3.007 3.118l102.068 3.257c1.711.055 3.032-1.301 3.032-3.037v-1.496c0-1.737-1.252-3.192-2.962-3.241l-102.21-2.974c-1.587-.046-2.935 1.264-2.935 2.934v1.439z" fill="#B3CEE0"/><path d="M274.133 327.487c14.645.691 26.672-10.716 26.672-25.433 0-14.718-12.027-27.036-26.672-27.456-14.498-.416-26.184 11.004-26.184 25.452 0 14.448 11.686 26.753 26.184 27.437z" fill="#878787"/><path d="M250.055 300.129c0 13.308 10.731 24.595 24.08 25.215 13.475.625 24.492-9.837 24.492-23.373 0-13.537-11.017-24.834-24.492-25.231-13.349-.393-24.08 10.08-24.08 23.389z" fill="#fff"/><path d="M272.63 325.84c15.135.822 20.478 3.072 22.906-.107 2.238-2.93.384-8.351-2.283-11.519-4.205-4.997-10.93-5.506-20.079-6.131-8.551-.584-13.795-.942-17.923 2.569-3.847 3.273-6.299 9.547-3.908 12.953 2.222 3.165 6.984 1.458 21.287 2.235z" fill="url(#paint3_linear_78_1457)"/><path d="M278.216 308.272l1.771.525a.677.677 0 01.489.712.68.68 0 01-.099.294c-1.206 1.828-4.396 6.406-6.389 6.873-2.058.483-5.896-5.636-7.17-7.782a.633.633 0 01.105-.805.643.643 0 01.254-.144l1.288-.359a8.403 8.403 0 013.272-.243l4.824.585c.56.069 1.114.183 1.655.344z" fill="#4F4F4F"/><path d="M276.903 301.355s-.971 6.949.372 7.671l-3.82 4.006-3.86-5.086s1.458-1.041 1.074-6.828l6.234.237z" fill="#E99594"/><path d="M279.16 291.431c.138.192 1.937 9.072-4.28 9.759-6.189.684-6.462-5.815-6.383-8.566.079-2.75 2.907-3.654 4.527-3.792 1.623-.138 5.645 1.918 6.136 2.599z" fill="#FC9F9D"/><path d="M279.522 296.589s.311-1.429 1.378-.492c1.068.937-.629 3.26-2.028 3.11l.65-2.618zm-10.833-1.393c.178.127.688 3.515.688 3.515s-.892.072-1.537-1.161c-.646-1.232-.956-3.642.849-2.354z" fill="#FC9F9D"/><path d="M266.262 288.678c.65-1.06 2.292-.492 2.772-1.52.403-.864-.545-1.72-.036-2.461.425-.62 1.465-.571 1.65-.562 1.407.066 1.729 1.193 2.733 1.2 1.227.009 1.275-1.669 2.899-2.324 1.578-.637 3.887-.005 4.822 1.314.727 1.025.108 1.742 1.061 3.061.656.908 1.236.966 1.562 1.845.307.825.099 1.594-.063 2.164-.388 1.369-1.112 1.953-2.204 3.383a22.679 22.679 0 00-1.852 2.85 32.065 32.065 0 00-1.088 3.439c-.348 1.361-.327 1.64-.653 2.072-1.123 1.49-3.682 1.242-4.757 1.138-1.232-.12-2.765-.269-3.535-1.369-.416-.595-.364-1.116-.46-2.518a35.21 35.21 0 00-.534-4.116 12.916 12.916 0 00-.503-1.755c-.447-1.213-.912-1.42-1.416-2.674-.405-1.006-.927-2.304-.398-3.167zm5.116 9.527c.761.234 1.274.068 2.307.047 2.067-.043 2.721.951 3.699.561.408-.163 1.351-.625 1.551-1.571a7.65 7.65 0 00.064-2.439c-.162-1.201-.349-2.586-1.307-3.228-1.388-.932-3.16.527-4.43-.502-.486-.393-.681-.973-.77-1.412-.281.088-2.521.827-3.345 3.193a5.406 5.406 0 00.031 3.508c.463.718 1.171 1.527 2.2 1.843z" fill="#8E8E8E"/><path d="M275.663 299.818a5.1 5.1 0 01-3.341-.22c-.139-.058-.258.09-.142.177.48.36 1.181.75 1.944.722a3.888 3.888 0 001.657-.482c.128-.068.027-.237-.118-.197z" fill="url(#paint4_linear_78_1457)"/><path d="M125.212 333.649l171.743 8.936c9.195.479 16.721-6.577 16.721-15.73v-48.264c0-6.387-3.667-12.038-9.018-14.94-.568.362-1.133.734-1.686 1.12-.121.084-.241.171-.361.258-5.334 3.794-9.853 8.786-12.525 15.358a33.012 33.012 0 00-.769 2.095l-.011.032c-1.276 3.879-2.645 7.543-4.156 10.966-4.703 10.629-10.784 18.861-19.804 23.621a36.332 36.332 0 01-5.992 2.502c-.773.246-1.567.474-2.378.675-8.749 2.205-19.683 1.915-33.579-1.42-1.025-.246-2.037-.492-3.054-.733-.57-.138-1.137-.272-1.706-.406-6.372-1.51-12.599-2.926-18.704-4.038-.423-.074-.849-.152-1.272-.226a164.837 164.837 0 00-5.48-.869c-1.37-.195-2.734-.369-4.091-.523-.289-.03-.578-.063-.866-.09a109.087 109.087 0 00-7.04-.52 92.127 92.127 0 00-6.851-.029 75.725 75.725 0 00-7.551.627 68.175 68.175 0 00-3.097.483c-12.389 2.228-24.465 7.913-36.474 19.187a97.567 97.567 0 00-1.929 1.857c-.022.023-.048.045-.07.071z" fill="#D8DEE8" opacity=".3"/><defs><linearGradient id="paint0_linear_78_1457" x1="-51329.2" y1="31586.7" x2="-47588.2" y2="39422.5" gradientUnits="userSpaceOnUse"><stop stop-color="#40447E"/><stop offset=".996" stop-color="#3C3B6B"/></linearGradient><linearGradient id="paint1_linear_78_1457" x1="-53872.1" y1="116016" x2="-37316.9" y2="192920" gradientUnits="userSpaceOnUse"><stop stop-color="#878787"/><stop offset="1" stop-color="#FB6FBB"/></linearGradient><linearGradient id="paint2_linear_78_1457" x1="-13157.9" y1="23408" x2="-13399" y2="22401.6" gradientUnits="userSpaceOnUse"><stop stop-color="#311944"/><stop offset="1" stop-color="#6B3976"/></linearGradient><linearGradient id="paint3_linear_78_1457" x1="-51164.8" y1="30213.6" x2="-49484.5" y2="37970.4" gradientUnits="userSpaceOnUse"><stop stop-color="#F9CE9C"/><stop offset="1" stop-color="#FB6FBB"/></linearGradient><linearGradient id="paint4_linear_78_1457" x1="-3448" y1="1678.84" x2="-3445.95" y2="1750.68" gradientUnits="userSpaceOnUse"><stop stop-color="#FC9F9D"/><stop offset=".996" stop-color="#F36F56"/></linearGradient></defs></svg>