<svg width="450" height="484" viewBox="0 0 450 484" fill="none" xmlns="http://www.w3.org/2000/svg">
<path d="M15.274 245.86C26.4539 172.826 72.2919 83.0991 162.85 73.7091C162.85 73.7091 231.606 65.3625 299.384 78.0126C339.61 85.5204 374.883 107.869 397.202 139.991C419.521 172.112 426.977 211.279 417.929 248.621C412.052 272.874 408.081 297.976 409.171 322.898C411.068 366.272 409.976 406.759 367.799 432.626C330.14 455.723 282.745 476.093 237.53 479.661C206.801 482.085 172.342 478.162 142.726 470.178C-8.20407 429.487 4.09396 318.893 15.274 245.86Z" fill="#F4F7FA"/>
<path d="M155.046 383.186C118.348 362.532 74.5471 330.989 41.4634 285.294C33.0204 273.633 -19.1368 201.595 7.5134 174.322C16.901 164.715 28.139 168.776 40.9148 156.151C56.0532 141.191 49.9646 125.914 54.9137 99.3116C57.8668 83.4383 66.5089 36.9847 102 28.8202C123.208 23.9413 153.044 32.9559 170.432 49.1116C195.936 72.8084 189.661 107.225 178.036 165.275C167.73 216.734 157.948 225.219 151.174 262.404C146.147 290.001 143.335 330.346 155.046 383.186Z" fill="#B3CEE0"/>
<g style="mix-blend-mode:soft-light" opacity="0.5">
<path d="M158.887 388.063C167.319 399.556 176.782 410.258 187.158 420.036C219.104 450.16 258.846 471.681 305.283 484L305.836 481.918C259.75 469.692 220.319 448.345 188.638 418.47C75.2776 311.572 112.997 135.017 127.258 83.4519C135.346 54.2097 152.784 26.6773 179.09 1.62036L177.602 0.0615234C151.011 25.3914 133.374 53.2552 125.181 82.878C113.436 125.344 101.294 190.451 110.152 259.458C116.588 309.597 132.938 352.684 158.887 388.063Z" fill="white"/>
</g>
<g style="mix-blend-mode:soft-light" opacity="0.5">
<path d="M109.642 171.374L110.545 171.023C111.246 170.751 180.899 143.036 198.221 78.4671L196.139 77.9095C180.161 137.47 118.826 165.196 110.659 168.647C62.1805 74.1522 95.848 17.1269 107.356 1.8688C107.675 1.44532 107.869 1.1757 107.928 1.07045L106.058 0C105.998 0.0938848 105.852 0.284305 105.635 0.572638C93.8992 16.1322 59.4735 74.3725 109.197 170.514L109.642 171.374Z" fill="white"/>
</g>
<g style="mix-blend-mode:soft-light" opacity="0.5">
<path d="M28.2322 200.01C42.231 219.096 67.0651 242.079 110.687 259.173L111.223 259.384L111.696 259.055C112.163 258.73 158.759 225.824 189.094 162.222L219.657 98.1407L217.711 97.2139L187.148 161.295C158.692 220.959 115.854 253.362 110.928 256.954C59.8546 236.808 35.0119 208.574 23.1547 188.402C10.3077 166.541 9.55873 149.289 9.55263 149.118L7.39844 149.193C7.42423 149.917 8.17521 167.165 21.2963 189.492C23.4286 193.113 25.7436 196.624 28.2322 200.01V200.01Z" fill="white"/>
</g>
<path d="M181.455 382.834C199.084 369.27 222.796 346.761 235.838 312.933C252.943 268.568 236.668 243.715 246.31 166.717C252.406 118.031 257.151 84.1166 283.562 68.3078C304.258 55.9193 335.782 56.1332 353.451 71.2153C368.142 83.7557 374.976 108.043 376.125 125.016C377.062 138.849 374.274 148.553 381.424 156.49C388.732 164.602 397.801 161.299 404.774 167.459C418.914 179.952 406.537 215.549 404.536 221.302C382.284 285.3 317.518 323.602 289.066 339.97C265.54 353.504 229.476 371.077 181.455 382.834Z" fill="#CFE0ED"/>
<g style="mix-blend-mode:soft-light" opacity="0.5">
<path d="M195.186 390.545L194.809 389.161C235.606 378.067 287.51 355.526 303.1 311.142C308.833 294.821 309.075 277.339 309.41 253.143C309.678 233.821 308.123 220.103 306.752 208C304.957 192.161 303.539 179.65 307.102 162.037C310.718 144.166 318.428 126.805 330.019 110.435L331.191 111.263C319.716 127.469 312.085 144.648 308.509 162.321C304.991 179.713 306.397 192.125 308.178 207.839C309.554 219.984 311.114 233.75 310.846 253.16C310.521 276.58 310.265 295.075 304.455 311.617C297.023 332.775 280.619 351.032 255.698 365.879C238.875 375.902 218.516 384.201 195.186 390.545Z" fill="white"/>
</g>
<g style="mix-blend-mode:soft-light" opacity="0.5">
<path d="M310.346 239.802L309.638 239.408C309.516 239.339 297.267 232.422 285.768 218.025C275.154 204.737 263 182.168 265.372 150.104L266.803 150.21C264.466 181.81 276.436 204.043 286.889 217.13C296.649 229.349 306.912 236.072 309.64 237.741C323.531 204.145 344.272 184.241 359.281 173.438C375.686 161.631 389.011 157.831 389.144 157.794L389.53 159.175C389.399 159.212 376.272 162.963 360.064 174.642C345.113 185.416 324.403 205.336 310.652 239.052L310.346 239.802Z" fill="white"/>
</g>
<g style="mix-blend-mode:soft-light" opacity="0.5">
<path d="M307.967 291.953L307.716 291.496C307.609 291.3 296.789 271.705 282.096 254.185C267.504 236.785 230.213 227.589 229.838 227.498L230.176 226.104C231.726 226.48 268.304 235.505 283.197 253.264C296.726 269.397 306.989 287.274 308.718 290.346C349.561 281.926 400.946 193.351 401.462 192.453L402.706 193.168C402.576 193.394 389.469 216.082 371.428 239.444C347.139 270.898 325.959 288.532 308.48 291.855L307.967 291.953Z" fill="white"/>
</g>
<g style="mix-blend-mode:soft-light" opacity="0.5">
<path d="M261.925 361.808L262.756 360.644C274.602 344.053 274.928 325.444 263.725 305.333C255.333 290.269 243.281 280.004 243.16 279.902L244.086 278.806C244.209 278.91 256.461 289.345 264.979 304.635C276.048 324.504 275.96 343.715 264.751 360.288C269.65 360.053 286.683 358.9 308.3 353.655C331.912 347.926 365.982 336.004 394.202 311.739L449.062 264.567L449.998 265.655L395.138 312.826C366.691 337.287 332.377 349.293 308.602 355.058C282.848 361.302 263.547 361.774 263.355 361.778L261.925 361.808Z" fill="white"/>
</g>
<path d="M263.135 395.141C290.983 398.479 326.935 398.761 362.704 387.227C371.832 384.283 428.223 366.1 424.651 340.969C423.392 332.117 415.756 329.879 413.867 318.073C411.628 304.084 420.916 298.272 428.736 282.036C433.402 272.349 447.057 243.998 431.209 225.655C421.739 214.694 402.162 207.802 386.458 209.642C363.425 212.341 353.239 233.296 336.618 269.049C321.885 300.743 323.798 309.148 312.789 331.785C304.62 348.586 290.239 371.364 263.135 395.141Z" fill="#FFC5A4"/>
<g style="mix-blend-mode:soft-light" opacity="0.5">
<path d="M259.151 396.248C250.095 399.106 240.797 401.133 231.372 402.304C202.347 405.922 172.522 401.853 142.727 390.208L143.249 388.873C172.82 400.429 202.409 404.47 231.194 400.881C334.191 388.042 383.473 278.372 396.123 245.065C403.297 226.177 404.775 204.53 400.515 180.726L401.928 180.474C406.234 204.537 404.733 226.44 397.465 245.574C387.047 273.004 367.924 312.751 335.986 346.334C312.779 370.735 287.026 387.449 259.151 396.248Z" fill="white"/>
</g>
<g style="mix-blend-mode:soft-light" opacity="0.5">
<path d="M370.951 299.222L370.605 298.678C370.335 298.256 343.838 255.977 359.966 214.482L361.304 215.001C346.426 253.277 368.451 292.291 371.479 297.357C434.74 265.664 439.117 221.792 438.945 209.071C438.94 208.718 438.943 208.497 438.952 208.417L440.378 208.577C440.374 208.651 440.377 208.811 440.38 209.051C440.555 222.024 436.107 266.847 371.529 298.935L370.951 299.222Z" fill="white"/>
</g>
<g style="mix-blend-mode:soft-light" opacity="0.5">
<path d="M403.407 346.619C388.369 351.366 365.977 353.945 335.812 345.972L335.442 345.874L335.317 345.511C335.194 345.153 323.126 309.153 331.884 263.06L340.708 216.619L342.119 216.887L333.294 263.327C325.079 306.566 335.326 340.818 336.557 344.685C371.926 353.949 396.392 348.553 410.706 342.38C426.218 335.69 433.415 326.718 433.486 326.628L434.614 327.516C434.315 327.895 427.117 336.864 411.275 343.697C408.703 344.803 406.077 345.779 403.407 346.619V346.619Z" fill="white"/>
</g>
<g style="mix-blend-mode:soft-light" opacity="0.26">
<path d="M185.798 176.604C183.193 192.775 188.695 194.025 185.267 208.114C181.349 224.215 173.19 226.588 174.629 236.813C175.87 245.627 182.327 246.668 188.91 259.321C194.95 270.93 195.233 281.047 195.787 285.115C197.291 296.148 207.668 313.097 244.469 339.904C244.031 339.752 243.595 339.601 243.152 339.444C224.992 329.08 212.879 317.892 204.658 308.52C195.609 298.206 195.174 294.545 178.368 274.669C161.151 254.305 155.858 251.348 151.058 239.572C148.909 234.3 141.607 216.385 147.883 198.161C153.202 182.715 163.485 180.957 164.753 165.99C165.559 156.478 161.632 154.515 163.114 143.048C164.371 133.322 167.696 130.876 170.311 120.692C171.567 115.755 172.242 110.688 172.321 105.595C175.174 107.516 177.159 112.986 178.044 115.432C182.769 128.487 181.196 141.987 172.89 170.116C165.742 194.325 159.605 209.055 161.458 209.933C162.848 210.591 167.701 202.975 168.229 202.145C175.587 190.598 177.725 179.379 179.09 170.279C183.347 141.881 180.445 131.571 186.981 128.185C189.396 126.934 192.405 126.994 195.116 127.864C196.251 132.382 196.851 137.343 196.458 142.643C195.425 156.582 188.558 159.473 185.798 176.604Z" fill="white"/>
</g>
<path d="M86.3125 115.558L305.214 109.244L335.891 108.359C345.211 108.09 352.809 115.286 352.809 124.439V457.058C352.809 466.212 345.214 473.163 335.895 472.271L135.458 453.083L86.2594 448.38C78.5113 447.638 72.3293 440.107 72.3293 431.827V130.948C72.3293 122.668 78.5642 115.781 86.3125 115.558Z" fill="#363636"/>
<path d="M68.3434 431.666C68.3434 439.93 74.4208 447.225 82.1416 447.964L330.585 471.771C339.869 472.66 347.328 465.991 347.328 456.857V124.562C347.328 115.428 339.856 108.241 330.572 108.509L82.0883 115.683C74.3674 115.905 68.3434 122.784 68.3434 131.047L68.3434 431.666Z" fill="#B8B7B6"/>
<path opacity="0.7" d="M335.871 119.332V444.348C335.871 453.446 328.504 460.61 319.292 459.763L91.7435 438.828C83.9664 438.113 78.3084 430.435 78.3084 422.14V125.814L335.871 119.332Z" fill="white"/>
<path d="M68.3434 131.047V151.999L347.328 147.721V124.562C347.328 115.425 340.015 108.236 330.727 108.504L82.188 115.679C74.4643 115.902 68.3434 122.781 68.3434 131.047Z" fill="#363636"/>
<path d="M315.102 128.555C315.102 133.071 318.818 136.661 323.415 136.572C328.026 136.483 331.775 132.729 331.775 128.186C331.775 123.644 328.026 120.055 323.415 120.17C318.818 120.284 315.102 124.038 315.102 128.555Z" fill="white"/>
<path d="M290.293 129.103C290.291 130.165 290.503 131.216 290.916 132.195C291.328 133.174 291.934 134.06 292.695 134.801C293.457 135.542 294.36 136.124 295.351 136.51C296.342 136.897 297.4 137.082 298.464 137.053C302.997 136.966 306.682 133.244 306.682 128.741C306.683 127.675 306.47 126.62 306.055 125.638C305.639 124.656 305.03 123.768 304.263 123.026C303.496 122.284 302.588 121.704 301.591 121.32C300.595 120.936 299.531 120.756 298.464 120.791C293.946 120.904 290.293 124.625 290.293 129.103Z" fill="white"/>
<path d="M265.904 129.641C265.898 130.689 266.103 131.728 266.506 132.696C266.909 133.664 267.503 134.542 268.252 135.277C269.001 136.012 269.89 136.59 270.866 136.976C271.843 137.362 272.887 137.549 273.937 137.525C278.393 137.439 282.015 133.75 282.015 129.285C282.022 128.233 281.816 127.19 281.41 126.219C281.004 125.248 280.406 124.368 279.653 123.632C278.899 122.897 278.004 122.32 277.022 121.937C276.04 121.554 274.991 121.372 273.937 121.402C269.495 121.512 265.904 125.201 265.904 129.641Z" fill="white"/>
<g opacity="0.15">
<path opacity="0.15" d="M131.061 452.662L330.665 471.786C339.953 472.675 347.328 465.732 347.328 456.595V124.563C347.328 115.426 340.015 108.237 330.727 108.505L300.208 109.387C300.988 113.001 301.713 116.667 302.321 120.388C302.402 120.853 302.488 121.324 302.563 121.789C303.227 126.014 303.785 130.299 304.189 134.625C304.623 139.247 304.9 143.916 304.98 148.614C305.397 171.933 301.179 195.937 288.993 218.23C260.062 271.164 209.512 272.362 170.45 319.773C151.855 342.342 133.037 378.866 131.209 442.149C131.104 445.533 131.055 448.576 131.061 452.662Z" fill="white"/>
</g>
<g style="mix-blend-mode:multiply">
<g style="mix-blend-mode:multiply" opacity="0.3">
<g opacity="0.3">
<path d="M95.9073 171.767L306.868 170.126C309.563 170.101 312.224 170.726 314.625 171.949C320.013 174.69 323.705 180.244 323.705 186.653V235.084C323.705 244.268 316.127 251.588 306.868 251.4L133.976 247.886L95.9073 247.112C87.9983 246.951 81.5977 239.97 81.5977 231.55V187.15C81.5977 178.729 87.9982 171.828 95.9073 171.767Z" fill="#040404" style="mix-blend-mode:multiply"/>
</g>
</g>
<g style="mix-blend-mode:multiply" opacity="0.3">
<g opacity="0.3">
<path d="M95.9073 359.479L306.868 372.607C309.603 372.784 312.259 373.594 314.625 374.973C320.013 378.092 323.705 383.905 323.705 390.313V438.744C323.705 447.929 316.127 454.718 306.868 453.881L133.976 438.263L95.9073 434.824C87.9983 434.11 81.5978 426.68 81.5978 418.26V373.86C81.5977 365.439 87.9982 358.986 95.9073 359.479Z" fill="#040404" style="mix-blend-mode:multiply"/>
</g>
</g>
<g style="mix-blend-mode:multiply" opacity="0.3">
<g opacity="0.3">
<path d="M95.9073 265.338L306.868 271.06C309.584 271.134 312.242 271.852 314.625 273.153C320.013 276.082 323.705 281.766 323.705 288.174V336.605C323.705 345.79 316.127 352.845 306.868 352.334L133.976 342.786L95.9073 340.684C87.9983 340.247 81.5978 333.042 81.5978 324.622V280.222C81.5977 271.801 87.9982 265.124 95.9073 265.338Z" fill="#040404" style="mix-blend-mode:multiply"/>
</g>
</g>
</g>
<path d="M73.1649 178.681V222.94C73.1649 231.334 79.5252 238.273 87.3839 238.407L296.953 241.998C306.148 242.155 313.674 234.836 313.674 225.683V177.42C313.666 175.243 313.227 173.089 312.38 171.083C311.534 169.077 310.298 167.258 308.743 165.732C307.188 164.205 305.346 163.001 303.322 162.189C301.298 161.378 299.133 160.974 296.953 161.002L87.3839 163.301C79.5252 163.388 73.1649 170.287 73.1649 178.681Z" fill="#D8DEE8"/>
<path d="M76.3145 178.468C76.3145 171.152 81.7279 165.164 88.5776 165.093L297.416 162.943C305.42 162.861 311.957 169.249 311.957 177.213V224.626C311.957 232.59 305.357 238.938 297.353 238.81L88.6134 235.467C81.7635 235.357 76.3145 229.34 76.3145 222.025L76.3145 178.468Z" fill="white"/>
<path d="M223.73 191.434L219.593 199.441L210.43 200.577C210.211 200.6 210.004 200.685 209.833 200.822C209.662 200.959 209.533 201.142 209.463 201.349C209.393 201.557 209.385 201.78 209.438 201.993C209.492 202.205 209.605 202.398 209.766 202.547L216.378 208.92L214.811 217.702C214.642 218.649 215.677 219.407 216.564 218.984L224.827 215.039L233.187 219.482C234.096 219.966 235.16 219.261 234.986 218.289L233.378 209.308L240.216 203.107C240.959 202.433 240.549 201.229 239.524 201.07L230.099 199.61L225.925 191.457C225.475 190.579 224.178 190.567 223.73 191.434Z" fill="#EE6E23"/>
<path d="M189.358 191.082L185.42 198.895L176.696 200.007C176.486 200.034 176.288 200.12 176.124 200.255C175.961 200.39 175.839 200.569 175.773 200.77C175.707 200.971 175.699 201.186 175.751 201.392C175.802 201.597 175.911 201.784 176.064 201.93L182.36 208.145L180.868 216.715C180.835 216.926 180.859 217.143 180.94 217.341C181.021 217.54 181.154 217.713 181.325 217.841C181.497 217.97 181.701 218.049 181.914 218.071C182.128 218.092 182.343 218.055 182.537 217.964L190.402 214.11L198.358 218.439C199.223 218.909 200.235 218.221 200.07 217.274L198.539 208.514L205.045 202.462C205.752 201.805 205.362 200.631 204.386 200.476L195.42 199.056L191.447 191.104C191.351 190.91 191.203 190.747 191.02 190.633C190.837 190.518 190.626 190.456 190.409 190.454C190.193 190.452 189.981 190.509 189.795 190.62C189.61 190.731 189.458 190.891 189.358 191.082Z" fill="#EE6E23"/>
<path d="M156.622 190.745L152.869 198.374L144.553 199.462C143.661 199.579 143.305 200.688 143.95 201.34L149.952 207.406L148.53 215.773C148.377 216.676 149.316 217.396 150.121 216.992L157.617 213.224L165.197 217.444C165.378 217.549 165.585 217.601 165.794 217.592C166.003 217.584 166.206 217.516 166.377 217.396C166.549 217.276 166.682 217.11 166.762 216.917C166.842 216.723 166.865 216.511 166.827 216.306L165.37 207.757L171.567 201.847C171.717 201.699 171.824 201.512 171.874 201.306C171.924 201.101 171.916 200.886 171.851 200.685C171.786 200.484 171.666 200.305 171.505 200.168C171.344 200.031 171.148 199.942 170.939 199.909L162.398 198.526L158.613 190.765C158.524 190.578 158.384 190.419 158.209 190.307C158.035 190.195 157.832 190.134 157.624 190.132C157.416 190.13 157.212 190.186 157.034 190.295C156.857 190.403 156.714 190.559 156.622 190.745Z" fill="#EE6E23"/>
<path d="M125.409 190.423L121.828 197.876L113.893 198.942C113.041 199.057 112.702 200.141 113.317 200.777L119.045 206.7L117.688 214.874C117.542 215.756 118.438 216.459 119.206 216.064L126.358 212.378L133.588 216.495C133.763 216.596 133.963 216.644 134.165 216.634C134.367 216.624 134.561 216.557 134.725 216.439C134.889 216.322 135.016 216.16 135.09 215.972C135.164 215.785 135.183 215.58 135.143 215.383L133.753 207.035L139.663 201.261C139.807 201.116 139.909 200.934 139.957 200.736C140.005 200.537 139.998 200.329 139.936 200.134C139.875 199.94 139.761 199.765 139.607 199.63C139.453 199.495 139.266 199.405 139.064 199.369L130.918 198.022L127.308 190.443C127.227 190.26 127.095 190.105 126.927 189.995C126.76 189.886 126.565 189.826 126.365 189.824C126.165 189.822 125.968 189.878 125.799 189.984C125.629 190.09 125.494 190.243 125.409 190.423Z" fill="#EE6E23"/>
<path d="M95.6186 190.117L92.1989 197.401L84.6181 198.447C83.8045 198.559 83.48 199.618 84.0682 200.24L89.54 206.027L88.244 214.017C88.1042 214.879 88.9605 215.566 89.694 215.179L96.5247 211.572L103.429 215.591C104.179 216.027 105.057 215.384 104.914 214.502L103.586 206.347L109.228 200.702C109.841 200.09 109.503 198.997 108.657 198.854L100.88 197.54L97.4322 190.136C97.3575 189.958 97.2325 189.806 97.0725 189.699C96.9124 189.592 96.7244 189.533 96.5316 189.531C96.3387 189.529 96.1495 189.584 95.9873 189.688C95.8251 189.792 95.6969 189.941 95.6186 190.117Z" fill="#F4F7FA"/>
<path d="M129.62 181.375C129.629 182.169 129.948 182.929 130.51 183.492C131.071 184.056 131.831 184.378 132.627 184.391L234.695 184.085C236.406 184.08 237.727 182.671 237.727 180.935V179.439C237.727 177.702 236.475 176.3 234.765 176.31L132.555 176.898C130.968 176.907 129.62 178.266 129.62 179.936V181.375Z" fill="#B3CEE0"/>
<path d="M274.133 227.695C288.778 227.875 300.805 216.049 300.805 201.331C300.805 186.614 288.778 174.715 274.133 174.806C259.635 174.897 247.949 186.724 247.949 201.172C247.949 215.62 259.635 227.518 274.133 227.695Z" fill="#878787"/>
<path d="M250.055 201.178C250.055 214.486 260.786 225.399 274.135 225.552C287.61 225.708 298.627 214.861 298.627 201.324C298.627 187.788 287.61 176.875 274.135 176.949C260.786 177.022 250.055 187.869 250.055 201.178Z" fill="white"/>
<path d="M282.934 223.967C293.27 222.414 295.559 221.283 296.619 219.177C298.159 216.117 297.039 211.133 294.404 208.054C292.097 205.357 289.22 204.817 289.304 202.957C289.373 201.428 291.344 201.238 292.793 198.364C293.216 197.525 294.036 195.896 293.679 193.932C293.156 191.056 290.489 189.548 290.273 189.43C287.487 187.909 285.899 189.662 283.803 188.3C281.183 186.596 282.371 183.009 279.916 181.977C278.13 181.227 275.85 182.432 275.255 182.746C273.273 183.794 273.481 184.85 271.808 185.5C269.846 186.262 268.91 185.061 266.632 185.546C264.753 185.946 263.393 187.25 262.284 188.562C259.793 191.507 261.031 193.257 259.192 196.888C256.606 201.994 252.705 201.394 252.014 205.487C251.652 207.627 252.581 208.603 251.868 211.88C251.387 214.092 250.781 214.485 250.674 215.788C250.365 219.533 254.824 222.859 255.657 223.445C260.963 227.175 268.322 226.162 282.934 223.967Z" fill="#646464"/>
<path style="mix-blend-mode:multiply" opacity="0.3" d="M266.298 213.937C273.175 213.493 277.835 219.752 279.684 218.221C281.438 216.768 276.487 211.78 278.177 206.001C279.837 200.326 286.357 199.16 285.841 195.951C285.258 192.321 276.526 191.38 276.731 188.711C276.852 187.136 279.936 186.798 280.554 184.294C280.705 183.639 280.683 182.956 280.49 182.312C282.189 183.635 281.417 186.748 283.803 188.3C285.899 189.662 287.487 187.909 290.273 189.43C290.489 189.548 293.156 191.056 293.679 193.932C294.037 195.896 293.216 197.525 292.793 198.364C291.344 201.238 289.373 201.428 289.304 202.957C289.22 204.817 292.097 205.357 294.404 208.054C297.039 211.133 298.159 216.117 296.619 219.177C295.559 221.283 293.27 222.414 282.934 223.967C268.322 226.162 260.963 227.175 255.657 223.445C253.603 222 251.182 219.545 250.663 217.373C251.699 218.306 252.716 218.764 253.664 218.941C258.082 219.765 260.125 214.335 266.298 213.937Z" fill="url(#paint0_linear_78_1457)"/>
<path d="M291.301 225.039C292.705 222.953 291.849 219.666 291.669 218.974C290.965 216.272 289.306 214.591 288.702 213.994C284.558 209.898 278.255 209.898 273.5 209.898C268.77 209.898 266.133 209.898 263.263 211.514C258.099 214.42 254.559 221.223 256.622 224.598C257.908 226.702 260.408 225.905 275.348 226.603C285.117 227.059 289.54 227.654 291.301 225.039Z" fill="#D5E3EC"/>
<path d="M275.996 201.867C275.996 201.867 274.993 209.055 280.078 210.512C280.212 210.55 280.333 210.623 280.429 210.723C280.525 210.823 280.593 210.947 280.626 211.082C280.659 211.217 280.655 211.358 280.616 211.491C280.576 211.624 280.502 211.744 280.401 211.839L274.132 217.68C274.042 217.764 273.935 217.829 273.819 217.871C273.703 217.913 273.58 217.932 273.456 217.926C273.333 217.92 273.212 217.889 273.1 217.836C272.989 217.783 272.889 217.708 272.807 217.615L267.147 211.305C267.061 211.21 267 211.096 266.969 210.972C266.938 210.848 266.938 210.719 266.968 210.595C266.999 210.471 267.059 210.357 267.145 210.261C267.23 210.166 267.337 210.094 267.457 210.049C269.272 209.39 272.525 207.46 271.842 202.2L275.996 201.867Z" fill="#EC9795"/>
<path d="M279.115 197.88C279.113 197.959 277.743 204.979 274.228 204.964C270.907 204.95 269.647 199.787 269.237 197.378C269.194 196.969 269.15 196.559 269.107 196.15C269.577 196.305 270.083 196.321 270.562 196.194C270.714 196.153 271.677 195.892 272.034 195.097C272.433 194.211 271.7 193.506 272.118 192.731C272.36 192.282 272.848 192.071 273.22 191.964C272.972 192.328 272.491 193.14 272.763 193.878C272.946 194.374 273.457 194.85 274.599 195.14C277.869 195.972 279.147 196.289 279.115 197.88Z" fill="#FC9F9D"/>
<path d="M278.252 198.719C278.252 198.719 280.068 197.189 280.226 198.128C280.556 200.086 279.003 201.162 278.161 200.575C277.319 199.988 278.252 198.719 278.252 198.719Z" fill="#FC9F9D"/>
<path d="M270.279 198.702C270.279 198.702 268.476 197.17 268.319 198.105C267.992 200.053 269.533 201.134 270.371 200.553C271.208 199.972 270.279 198.702 270.279 198.702Z" fill="#FC9F9D"/>
<g style="mix-blend-mode:multiply" opacity="0.3">
<g style="mix-blend-mode:multiply" opacity="0.3">
<path d="M125.212 239.055L296.955 241.997C306.15 242.154 313.676 234.836 313.676 225.682V177.419C313.674 174.388 312.831 171.416 311.239 168.834C309.647 166.252 307.369 164.162 304.658 162.794C304.09 163.175 303.525 163.567 302.972 163.973C302.851 164.061 302.731 164.152 302.611 164.243C297.277 168.224 292.758 173.373 290.086 180.039C289.811 180.729 289.552 181.434 289.317 182.16C289.313 182.171 289.31 182.182 289.306 182.192C288.03 186.116 286.661 189.828 285.15 193.303C280.447 204.097 274.366 212.541 265.346 217.616C263.432 218.692 261.427 219.599 259.354 220.327C258.581 220.6 257.787 220.855 256.976 221.085C248.227 223.595 237.293 223.687 223.397 220.836C222.372 220.626 221.36 220.416 220.343 220.21C219.773 220.092 219.206 219.978 218.637 219.864C212.265 218.576 206.038 217.378 199.933 216.478C199.51 216.419 199.084 216.356 198.661 216.297C196.822 216.038 194.999 215.811 193.181 215.619C191.811 215.472 190.447 215.346 189.09 215.239C188.801 215.219 188.512 215.196 188.224 215.18C186.777 215.078 185.339 215 183.909 214.958C182.999 214.93 182.091 214.912 181.184 214.905C178.888 214.893 176.602 214.957 174.333 215.115C171.799 215.29 169.283 215.579 166.782 216.005C165.748 216.179 164.715 216.376 163.685 216.597C151.296 219.257 139.22 225.364 127.211 237.056C126.569 237.682 125.924 238.322 125.282 238.981C125.26 239.005 125.234 239.028 125.212 239.055Z" fill="#D8DEE8"/>
</g>
</g>
<path d="M73.1649 364.801V409.06C73.1649 417.454 79.5252 424.838 87.3839 425.523L296.953 443.786C306.148 444.587 313.674 437.795 313.674 428.642V380.378C313.674 373.992 310.007 368.211 304.656 365.122C302.306 363.755 299.668 362.956 296.953 362.79L87.3839 350.417C79.5252 349.953 73.1649 356.407 73.1649 364.801Z" fill="#D8DEE8"/>
<path d="M76.3145 364.596C76.3145 357.28 81.7279 351.673 88.5776 352.082L297.416 364.536C305.42 365.013 311.957 371.858 311.957 379.822V427.235C311.957 435.199 305.357 441.088 297.353 440.4L88.6134 422.457C81.7635 421.868 76.3145 415.468 76.3145 408.153L76.3145 364.596Z" fill="white"/>
<path d="M223.73 388.097L219.593 395.815L210.43 396.309C209.447 396.362 209.055 397.498 209.766 398.233L216.378 405.068L214.811 413.74C214.642 414.676 215.677 415.506 216.564 415.145L224.827 411.778L233.187 416.807C234.096 417.354 235.16 416.724 234.986 415.74L233.378 406.647L240.216 400.924C240.959 400.302 240.549 399.069 239.524 398.838L230.099 396.718L225.925 388.273C225.476 387.364 224.178 387.261 223.73 388.097Z" fill="#EE6E23"/>
<path d="M189.358 385.337L185.42 392.875L176.696 393.375C175.761 393.429 175.387 394.539 176.064 395.254L182.36 401.91L180.868 410.375C180.707 411.289 181.693 412.096 182.537 411.742L190.402 408.438L198.358 413.324C199.223 413.855 200.235 413.238 200.07 412.279L198.539 403.412L205.045 397.815C205.752 397.208 205.362 396.006 204.386 395.783L195.42 393.735L191.447 385.505C191.02 384.619 189.785 384.52 189.358 385.337Z" fill="#EE6E23"/>
<path d="M156.624 382.707L152.871 390.073L144.555 390.58C143.663 390.634 143.307 391.718 143.952 392.415L149.954 398.901L148.532 407.169C148.379 408.061 149.318 408.847 150.123 408.499L157.618 405.256L165.199 410.006C166.023 410.523 166.987 409.918 166.829 408.983L165.371 400.332L171.569 394.856C172.241 394.261 171.87 393.089 170.941 392.874L162.399 390.893L158.614 382.867C158.207 382.003 157.03 381.909 156.624 382.707Z" fill="#EE6E23"/>
<path d="M125.409 380.201L121.828 387.403L113.893 387.914C113.041 387.969 112.702 389.029 113.317 389.709L119.045 396.032L117.688 404.112C117.542 404.983 118.438 405.749 119.206 405.407L126.358 402.223L133.588 406.846C134.374 407.348 135.294 406.755 135.143 405.842L133.753 397.397L139.663 392.037C140.304 391.455 139.95 390.311 139.064 390.103L130.918 388.185L127.308 380.354C126.919 379.51 125.797 379.421 125.409 380.201Z" fill="#EE6E23"/>
<path d="M95.6187 377.81L92.199 384.855L84.6182 385.369C83.8046 385.424 83.4801 386.461 84.0683 387.124L89.5401 393.294L88.2441 401.193C88.1043 402.046 88.9606 402.792 89.6941 402.456L96.5248 399.328L103.429 403.83C104.179 404.319 105.057 403.738 104.914 402.846L103.587 394.597L109.228 389.348C109.841 388.778 109.503 387.661 108.657 387.459L100.88 385.601L97.4322 377.955C97.061 377.132 95.9892 377.046 95.6187 377.81Z" fill="#EE6E23"/>
<path d="M129.62 371.931C129.62 373.601 131.04 375.046 132.627 375.152L234.695 382.024C236.406 382.139 237.727 380.837 237.727 379.101V377.605C237.727 375.868 236.475 374.361 234.765 374.25L132.555 367.663C130.968 367.561 129.62 368.823 129.62 370.493V371.931Z" fill="#B3CEE0"/>
<path d="M274.133 427.887C288.778 429.092 300.805 418.108 300.805 403.39C300.805 388.672 288.778 375.932 274.133 374.998C259.635 374.073 247.949 385.082 247.949 399.53C247.949 413.978 259.635 426.694 274.133 427.887Z" fill="url(#paint1_linear_78_1457)"/>
<path d="M250.055 399.683C250.055 412.992 260.786 424.655 274.135 425.744C287.61 426.842 298.627 416.767 298.627 403.231C298.627 389.694 287.61 378.01 274.135 377.14C260.786 376.279 250.055 386.375 250.055 399.683Z" fill="white"/>
<path d="M296.061 427.214C297.848 424.418 295.326 419.4 293.74 417.094C289.125 410.386 280.686 409.533 273.803 408.837C267.075 408.156 260.61 407.503 255.897 411.96C252.826 414.863 250.008 420.398 251.887 423.617C253.865 427.007 259.373 424.955 272.558 425.987C287.202 427.134 293.832 430.699 296.061 427.214Z" fill="#515356"/>
<path d="M267.45 409.436C267.45 410.682 270.489 412.412 274.245 412.702C278.012 412.992 281.072 411.724 281.072 410.471C281.072 409.218 278.012 409.546 274.245 409.261C270.489 408.976 267.45 408.189 267.45 409.436Z" fill="#B9D2E2"/>
<path d="M276.753 401.416C277.791 401.492 275.396 408.602 279.169 409.888C279.535 410.012 279.595 410.508 279.262 410.662C278.248 411.134 276.351 411.684 273.245 411.446C271.706 411.324 270.233 410.769 268.996 409.847C268.937 409.807 268.889 409.752 268.857 409.687C268.825 409.623 268.81 409.551 268.815 409.48C268.819 409.408 268.843 409.339 268.882 409.279C268.922 409.219 268.977 409.171 269.041 409.139C270.198 408.629 271.805 406.848 271.326 401.206L276.753 401.416Z" fill="#DE8A89"/>
<path d="M279.908 392.899C279.893 392.989 279.578 399.626 278.055 402.84C277.619 403.761 275.454 403.487 274.054 403.27C272.84 403.081 270.939 403.384 270.404 402.506C268.255 398.98 268.619 390.665 268.619 390.665C268.619 390.665 269.72 387.965 274.243 388.35C278.781 388.737 279.908 392.899 279.908 392.899Z" fill="#FC9F9D"/>
<path d="M278.841 396.399C278.841 396.399 279.793 395.362 280.69 395.279C281.587 395.195 282.172 397.557 280.947 398.979C279.724 400.401 278.31 399.047 278.31 399.047L278.841 396.399Z" fill="#FC9F9D"/>
<path d="M269.609 395.743C269.609 395.743 268.664 394.576 267.775 394.366C266.886 394.157 266.307 396.424 267.519 398.013C268.733 399.604 270.137 398.459 270.137 398.459L269.609 395.743Z" fill="#FC9F9D"/>
<path d="M279.588 396.37C279.468 396.58 279.331 396.775 279.238 396.744C278.854 396.617 280.337 392.979 278.971 391.574C278.265 390.848 277.471 391.41 274.585 391.079C271.685 390.746 270.944 390.001 270.069 390.472C269.272 390.901 268.56 392.233 269.15 396.368L268.657 396.218C268.878 394.894 268.637 394.031 268.361 393.478C268.159 393.075 267.795 392.548 267.823 391.826C267.841 391.378 267.989 391.368 268.013 391.002C268.085 389.93 266.859 389.555 266.8 388.487C266.755 387.664 267.459 387.526 267.33 386.661C267.221 385.925 266.671 385.752 266.758 385.232C266.852 384.67 267.589 384.297 268.106 384.185C268.634 384.07 268.825 384.249 269.135 384.056C269.636 383.743 269.395 383.112 269.757 382.908C270.402 382.545 271.684 384.254 272.514 383.905C273.016 383.694 272.823 382.951 273.268 382.803C274.128 382.518 275.649 385.032 276.261 384.752C276.555 384.619 276.272 384.012 276.683 383.606C277.166 383.13 278.327 383.208 278.856 383.782C279.35 384.317 278.931 384.889 279.453 385.56C279.922 386.163 280.465 385.964 280.995 386.458C281.896 387.297 281.582 389.037 281.471 389.657C281.085 391.794 279.886 392.148 280.155 393.641C280.224 394.023 280.384 394.454 280.27 395.062C280.17 395.553 279.934 396.006 279.588 396.37Z" fill="#393939"/>
<g style="mix-blend-mode:multiply" opacity="0.3">
<path style="mix-blend-mode:multiply" opacity="0.3" d="M268.561 390.935C268.667 389.883 267.849 389.334 267.986 388.588C268.096 387.989 268.781 387.491 269.424 387.418C270.797 387.263 271.687 389.351 273.055 389.225C274.113 389.128 273.996 387.84 275.191 387.407C277.088 386.719 279.079 389.346 280.343 388.742C280.723 388.561 281.108 388.054 281.135 386.608C281.861 387.49 281.576 389.072 281.471 389.658C281.085 391.795 279.886 392.149 280.155 393.642C280.224 394.024 280.384 394.455 280.27 395.062C280.17 395.554 279.934 396.007 279.588 396.37C279.468 396.581 279.331 396.776 279.238 396.745C278.854 396.617 280.337 392.98 278.971 391.575C278.265 390.848 277.471 391.41 274.585 391.079C271.685 390.747 270.944 390.001 270.069 390.472C269.273 390.901 268.56 392.234 269.15 396.368L268.657 396.219C268.879 394.894 268.637 394.031 268.361 393.479C268.278 393.313 268.167 393.125 268.068 392.912C268.09 392.528 268.159 392.147 268.274 391.78C268.42 391.313 268.527 391.273 268.561 390.935Z" fill="url(#paint2_linear_78_1457)"/>
</g>
<g style="mix-blend-mode:multiply" opacity="0.3">
<g style="mix-blend-mode:multiply" opacity="0.3">
<path d="M125.212 428.819L296.955 443.786C306.15 444.587 313.676 437.795 313.676 428.642V380.378C313.676 373.992 310.009 368.211 304.658 365.122C304.09 365.463 303.525 365.816 302.972 366.183C302.851 366.262 302.731 366.345 302.611 366.428C297.277 370.035 292.758 374.868 290.086 381.346C289.811 382.018 289.552 382.704 289.317 383.414C289.313 383.425 289.31 383.435 289.306 383.446C288.03 387.28 286.661 390.896 285.15 394.266C280.447 404.73 274.366 412.748 265.346 417.191C263.424 418.137 261.418 418.904 259.354 419.483C258.581 419.702 257.787 419.902 256.976 420.075C248.227 421.972 237.293 421.299 223.397 417.475C222.372 417.193 221.36 416.912 220.343 416.635C219.773 416.477 219.206 416.323 218.637 416.169C212.265 414.435 206.038 412.801 199.933 411.474C199.51 411.386 199.084 411.293 198.661 411.204C196.822 410.816 194.995 410.462 193.181 410.142C191.811 409.9 190.447 409.677 189.09 409.475C188.801 409.436 188.512 409.392 188.224 409.356C186.777 409.153 185.339 408.975 183.909 408.832C182.999 408.74 182.091 408.659 181.184 408.588C178.888 408.416 176.602 408.32 174.333 408.319C171.812 408.312 169.291 408.433 166.782 408.68C165.748 408.781 164.715 408.906 163.685 409.055C151.296 410.848 139.22 416.109 127.211 426.961C126.569 427.542 125.924 428.136 125.282 428.751C125.26 428.773 125.234 428.794 125.212 428.819Z" fill="#D8DEE8"/>
</g>
</g>
<path d="M73.1649 271.458V315.718C73.1649 324.111 79.5252 331.272 87.3838 331.681L296.953 342.585C306.148 343.064 313.674 336.008 313.674 326.855V278.591C313.674 272.204 310.007 266.553 304.656 263.651C302.29 262.362 299.648 261.655 296.953 261.59L87.3838 256.575C79.5252 256.387 73.1649 263.065 73.1649 271.458Z" fill="#D8DEE8"/>
<path d="M76.3145 271.198C76.3145 263.882 81.7279 258.083 88.5776 258.252L297.416 263.378C305.42 263.574 311.957 270.19 311.957 278.153V325.567C311.957 333.53 305.357 339.65 297.353 339.243L88.6134 328.626C81.7635 328.278 76.3145 322.07 76.3145 314.755L76.3145 271.198Z" fill="white"/>
<path d="M223.73 289.468L219.593 297.33L210.43 298.146C209.447 298.234 209.055 299.384 209.766 300.093L216.378 306.697L214.811 315.424C214.642 316.366 215.677 317.159 216.564 316.767L224.827 313.11L233.187 317.846C234.096 318.361 235.16 317.693 234.986 316.716L233.378 307.678L240.216 301.715C240.959 301.068 240.549 299.849 239.524 299.654L230.099 297.865L225.925 289.567C225.475 288.673 224.178 288.616 223.73 289.468Z" fill="#EE6E23"/>
<path d="M189.358 287.914L185.42 295.59L176.696 296.397C175.761 296.484 175.387 297.606 176.064 298.298L182.36 304.733L180.868 313.25C180.707 314.169 181.693 314.942 182.537 314.558L190.402 310.978L198.358 315.585C199.223 316.086 200.235 315.433 200.07 314.48L198.539 305.667L205.045 299.842C205.752 299.209 205.362 298.021 204.386 297.832L195.42 296.099L191.447 288.008C191.02 287.137 189.785 287.082 189.358 287.914Z" fill="#EE6E23"/>
<path d="M156.624 286.434L152.871 293.932L144.555 294.73C143.663 294.816 143.307 295.913 143.952 296.587L149.954 302.862L148.532 311.18C148.379 312.077 149.318 312.83 150.123 312.454L157.618 308.947L165.199 313.432C166.023 313.92 166.987 313.281 166.829 312.351L165.371 303.752L171.568 298.058C172.241 297.44 171.87 296.281 170.941 296.098L162.399 294.417L158.614 286.524C158.207 285.674 157.03 285.622 156.624 286.434Z" fill="#EE6E23"/>
<path d="M125.409 285.024L121.828 292.352L113.893 293.141C113.041 293.226 112.702 294.298 113.317 294.956L119.045 301.078L117.688 309.206C117.542 310.083 118.438 310.817 119.206 310.448L126.358 307.012L133.588 311.382C133.757 311.491 133.954 311.548 134.155 311.546C134.357 311.544 134.553 311.483 134.719 311.369C134.885 311.256 135.014 311.097 135.09 310.91C135.165 310.724 135.184 310.52 135.143 310.323L133.753 301.927L139.663 296.359C140.304 295.755 139.95 294.624 139.064 294.446L130.918 292.815L127.308 285.11C126.919 284.28 125.797 284.23 125.409 285.024Z" fill="#EE6E23"/>
<path d="M95.6187 283.678L92.199 290.843L84.6182 291.624C83.8046 291.708 83.4801 292.756 84.0683 293.398L89.5401 299.376L88.2441 307.321C88.1043 308.178 88.9606 308.895 89.6941 308.533L96.5248 305.165L103.429 309.424C104.179 309.887 105.057 309.275 104.914 308.388L103.587 300.186L109.228 294.739C109.841 294.147 109.503 293.042 108.657 292.87L100.88 291.285L97.4322 283.76C97.061 282.95 95.9892 282.902 95.6187 283.678Z" fill="#EE6E23"/>
<path d="M129.62 275.972C129.62 277.642 131.04 279.039 132.627 279.09L234.695 282.347C236.406 282.402 237.727 281.046 237.727 279.31V277.814C237.727 276.077 236.475 274.622 234.765 274.573L132.555 271.599C130.968 271.553 129.62 272.863 129.62 274.533V275.972Z" fill="#B3CEE0"/>
<path d="M274.133 327.487C288.778 328.178 300.805 316.771 300.805 302.054C300.805 287.336 288.778 275.018 274.133 274.598C259.635 274.182 247.949 285.602 247.949 300.05C247.949 314.498 259.635 326.803 274.133 327.487Z" fill="#878787"/>
<path d="M250.055 300.129C250.055 313.437 260.786 324.724 274.135 325.344C287.61 325.969 298.627 315.507 298.627 301.971C298.627 288.434 287.61 277.137 274.135 276.74C260.786 276.347 250.055 286.82 250.055 300.129Z" fill="white"/>
<path d="M272.63 325.84C287.765 326.662 293.108 328.912 295.536 325.733C297.774 322.803 295.92 317.382 293.253 314.214C289.048 309.217 282.323 308.708 273.174 308.083C264.623 307.499 259.379 307.141 255.251 310.652C251.404 313.925 248.952 320.199 251.343 323.605C253.565 326.77 258.327 325.063 272.63 325.84Z" fill="url(#paint3_linear_78_1457)"/>
<path d="M278.216 308.272L279.987 308.797C280.088 308.825 280.18 308.877 280.258 308.947C280.335 309.018 280.395 309.105 280.433 309.203C280.471 309.3 280.485 309.405 280.476 309.509C280.466 309.614 280.432 309.714 280.377 309.803C279.171 311.631 275.981 316.209 273.988 316.676C271.93 317.159 268.092 311.04 266.818 308.894C266.765 308.811 266.733 308.716 266.723 308.619C266.713 308.521 266.726 308.422 266.761 308.33C266.796 308.238 266.851 308.156 266.923 308.089C266.996 308.022 267.082 307.973 267.177 307.945L268.465 307.586C269.529 307.291 270.641 307.208 271.737 307.343L276.561 307.928C277.121 307.997 277.675 308.111 278.216 308.272Z" fill="#4F4F4F"/>
<path d="M276.903 301.355C276.903 301.355 275.932 308.304 277.275 309.026L273.455 313.032L269.595 307.946C269.595 307.946 271.053 306.905 270.669 301.118L276.903 301.355Z" fill="#E99594"/>
<path d="M279.16 291.431C279.298 291.623 281.097 300.503 274.88 301.19C268.691 301.874 268.418 295.375 268.497 292.624C268.576 289.874 271.404 288.97 273.024 288.832C274.647 288.694 278.669 290.75 279.16 291.431Z" fill="#FC9F9D"/>
<path d="M279.522 296.589C279.522 296.589 279.833 295.16 280.9 296.097C281.968 297.034 280.271 299.357 278.872 299.207L279.522 296.589Z" fill="#FC9F9D"/>
<path d="M268.689 295.196C268.867 295.323 269.377 298.711 269.377 298.711C269.377 298.711 268.485 298.783 267.84 297.55C267.194 296.318 266.884 293.908 268.689 295.196Z" fill="#FC9F9D"/>
<path d="M266.262 288.678C266.912 287.618 268.554 288.186 269.034 287.158C269.437 286.294 268.489 285.438 268.998 284.697C269.423 284.077 270.463 284.126 270.648 284.135C272.055 284.201 272.377 285.328 273.381 285.335C274.608 285.344 274.656 283.666 276.28 283.011C277.858 282.374 280.167 283.006 281.102 284.325C281.829 285.35 281.21 286.067 282.163 287.386C282.819 288.294 283.399 288.352 283.725 289.231C284.032 290.056 283.824 290.825 283.662 291.395C283.274 292.764 282.55 293.348 281.458 294.778C280.77 295.681 280.151 296.633 279.606 297.628C279.179 298.753 278.816 299.901 278.518 301.067C278.17 302.428 278.191 302.707 277.865 303.139C276.742 304.629 274.183 304.381 273.108 304.277C271.876 304.157 270.343 304.008 269.573 302.908C269.157 302.313 269.209 301.792 269.113 300.39C269.016 299.009 268.838 297.635 268.579 296.274C268.453 295.678 268.285 295.092 268.076 294.519C267.629 293.306 267.164 293.099 266.66 291.845C266.255 290.839 265.733 289.541 266.262 288.678ZM271.378 298.205C272.139 298.439 272.652 298.273 273.685 298.252C275.752 298.209 276.406 299.203 277.384 298.813C277.792 298.65 278.735 298.188 278.935 297.242C279.087 296.437 279.108 295.614 278.999 294.803C278.837 293.602 278.65 292.217 277.692 291.575C276.304 290.643 274.532 292.102 273.262 291.073C272.776 290.68 272.581 290.1 272.492 289.661C272.211 289.749 269.971 290.488 269.147 292.854C268.767 293.994 268.778 295.228 269.178 296.362C269.641 297.08 270.349 297.889 271.378 298.205Z" fill="#8E8E8E"/>
<path d="M275.663 299.818C274.557 300.123 273.379 300.045 272.322 299.598C272.183 299.54 272.064 299.688 272.18 299.775C272.66 300.135 273.361 300.525 274.124 300.497C274.706 300.462 275.272 300.298 275.781 300.015C275.909 299.947 275.808 299.778 275.663 299.818Z" fill="url(#paint4_linear_78_1457)"/>
<g style="mix-blend-mode:multiply" opacity="0.3">
<g style="mix-blend-mode:multiply" opacity="0.3">
<path d="M125.212 333.649L296.955 342.585C306.15 343.064 313.676 336.008 313.676 326.855V278.591C313.676 272.204 310.009 266.553 304.658 263.651C304.09 264.013 303.525 264.385 302.972 264.771C302.851 264.855 302.731 264.942 302.611 265.029C297.277 268.823 292.758 273.815 290.086 280.387C289.811 281.068 289.552 281.764 289.317 282.482C289.313 282.493 289.31 282.503 289.306 282.514C288.03 286.393 286.661 290.057 285.15 293.48C280.447 304.109 274.366 312.341 265.346 317.101C263.428 318.112 261.423 318.949 259.354 319.603C258.581 319.849 257.787 320.077 256.976 320.278C248.227 322.483 237.293 322.193 223.397 318.858C222.372 318.612 221.36 318.366 220.343 318.125C219.773 317.987 219.206 317.853 218.637 317.719C212.265 316.209 206.038 314.793 199.933 313.681C199.51 313.607 199.084 313.529 198.661 313.455C196.822 313.132 194.995 312.842 193.181 312.586C191.811 312.391 190.447 312.217 189.09 312.063C188.801 312.033 188.512 312 188.224 311.973C186.777 311.821 185.339 311.694 183.909 311.601C182.999 311.541 182.091 311.492 181.184 311.453C178.888 311.361 176.602 311.346 174.333 311.424C171.807 311.507 169.287 311.716 166.782 312.051C165.748 312.188 164.715 312.349 163.685 312.534C151.296 314.762 139.22 320.447 127.211 331.721C126.569 332.324 125.924 332.941 125.282 333.578C125.26 333.601 125.234 333.623 125.212 333.649Z" fill="#D8DEE8"/>
</g>
</g>
<defs>
<linearGradient id="paint0_linear_78_1457" x1="-51329.2" y1="31586.7" x2="-47588.2" y2="39422.5" gradientUnits="userSpaceOnUse">
<stop stop-color="#40447E"/>
<stop offset="0.9964" stop-color="#3C3B6B"/>
</linearGradient>
<linearGradient id="paint1_linear_78_1457" x1="-53872.1" y1="116016" x2="-37316.9" y2="192920" gradientUnits="userSpaceOnUse">
<stop stop-color="#878787"/>
<stop offset="1" stop-color="#FB6FBB"/>
</linearGradient>
<linearGradient id="paint2_linear_78_1457" x1="-13157.9" y1="23408" x2="-13399" y2="22401.6" gradientUnits="userSpaceOnUse">
<stop stop-color="#311944"/>
<stop offset="1" stop-color="#6B3976"/>
</linearGradient>
<linearGradient id="paint3_linear_78_1457" x1="-51164.8" y1="30213.6" x2="-49484.5" y2="37970.4" gradientUnits="userSpaceOnUse">
<stop stop-color="#F9CE9C"/>
<stop offset="1" stop-color="#FB6FBB"/>
</linearGradient>
<linearGradient id="paint4_linear_78_1457" x1="-3448" y1="1678.84" x2="-3445.95" y2="1750.68" gradientUnits="userSpaceOnUse">
<stop stop-color="#FC9F9D"/>
<stop offset="0.9964" stop-color="#F36F56"/>
</linearGradient>
</defs>
</svg>
